<mxfile host="app.diagrams.net" modified="2020-03-28T19:21:29.561Z" agent="Mozilla/5.0 (Macintosh; Intel Mac OS X 10_15_2) AppleWebKit/537.36 (KHTML, like Gecko) Chrome/80.0.3987.149 Safari/537.36" etag="x46mXlA8KFHhSrJ9JU2X" version="12.9.3" type="github">
  <diagram id="C5RBs43oDa-KdzZeNtuy" name="Page-1">
    <mxGraphModel dx="1752" dy="604" grid="1" gridSize="10" guides="1" tooltips="1" connect="1" arrows="1" fold="1" page="1" pageScale="1" pageWidth="827" pageHeight="1169" math="0" shadow="0">
      <root>
        <mxCell id="WIyWlLk6GJQsqaUBKTNV-0" />
        <mxCell id="WIyWlLk6GJQsqaUBKTNV-1" parent="WIyWlLk6GJQsqaUBKTNV-0" />
        <mxCell id="DZtqvsGBUFGNdlKDPb9Z-2" value="Consulter le catalogue" style="rounded=1;whiteSpace=wrap;html=1;arcSize=40;fontColor=#000000;fillColor=#ffffc0;strokeColor=#ff0000;" parent="WIyWlLk6GJQsqaUBKTNV-1" vertex="1">
          <mxGeometry x="200" y="150" width="120" height="40" as="geometry" />
        </mxCell>
        <mxCell id="DZtqvsGBUFGNdlKDPb9Z-3" value="" style="edgeStyle=orthogonalEdgeStyle;html=1;verticalAlign=bottom;endArrow=open;endSize=8;strokeColor=#ff0000;entryX=0.5;entryY=0;entryDx=0;entryDy=0;" parent="WIyWlLk6GJQsqaUBKTNV-1" source="DZtqvsGBUFGNdlKDPb9Z-2" target="DZtqvsGBUFGNdlKDPb9Z-4" edge="1">
          <mxGeometry relative="1" as="geometry">
            <mxPoint x="66" y="200" as="targetPoint" />
          </mxGeometry>
        </mxCell>
        <mxCell id="DZtqvsGBUFGNdlKDPb9Z-4" value="Constituer le panier" style="rounded=1;whiteSpace=wrap;html=1;arcSize=40;fontColor=#000000;fillColor=#ffffc0;strokeColor=#ff0000;" parent="WIyWlLk6GJQsqaUBKTNV-1" vertex="1">
          <mxGeometry x="200" y="210" width="120" height="40" as="geometry" />
        </mxCell>
        <mxCell id="DZtqvsGBUFGNdlKDPb9Z-5" value="" style="edgeStyle=orthogonalEdgeStyle;html=1;verticalAlign=bottom;endArrow=open;endSize=8;strokeColor=#ff0000;exitX=0.5;exitY=1;exitDx=0;exitDy=0;entryX=0.5;entryY=0;entryDx=0;entryDy=0;" parent="WIyWlLk6GJQsqaUBKTNV-1" source="DZtqvsGBUFGNdlKDPb9Z-4" target="DZtqvsGBUFGNdlKDPb9Z-9" edge="1">
          <mxGeometry relative="1" as="geometry">
            <mxPoint x="230" y="400" as="targetPoint" />
            <mxPoint x="510" y="450" as="sourcePoint" />
            <Array as="points" />
          </mxGeometry>
        </mxCell>
        <mxCell id="DZtqvsGBUFGNdlKDPb9Z-6" value="Qui&amp;nbsp;&lt;br&gt;enregistre&lt;br&gt;&amp;nbsp;l&#39;achat?" style="rhombus;whiteSpace=wrap;html=1;fillColor=#ffffc0;strokeColor=#ff0000;" parent="WIyWlLk6GJQsqaUBKTNV-1" vertex="1">
          <mxGeometry x="334" y="90" width="120" height="83" as="geometry" />
        </mxCell>
        <mxCell id="DZtqvsGBUFGNdlKDPb9Z-7" value="&lt;span style=&quot;font-size: 12px ; text-align: center ; white-space: normal ; background-color: rgb(248 , 249 , 250)&quot;&gt;Employé&lt;/span&gt;" style="edgeStyle=orthogonalEdgeStyle;html=1;align=left;verticalAlign=bottom;endArrow=open;endSize=8;strokeColor=#ff0000;entryX=0.5;entryY=0;entryDx=0;entryDy=0;" parent="WIyWlLk6GJQsqaUBKTNV-1" source="DZtqvsGBUFGNdlKDPb9Z-6" target="DZtqvsGBUFGNdlKDPb9Z-25" edge="1">
          <mxGeometry x="-0.7811" y="9" relative="1" as="geometry">
            <mxPoint x="560" y="330" as="targetPoint" />
            <mxPoint y="1" as="offset" />
          </mxGeometry>
        </mxCell>
        <mxCell id="DZtqvsGBUFGNdlKDPb9Z-8" value="Client" style="edgeStyle=orthogonalEdgeStyle;html=1;align=left;verticalAlign=top;endArrow=open;endSize=8;strokeColor=#ff0000;exitX=0;exitY=0.5;exitDx=0;exitDy=0;entryX=0.5;entryY=0;entryDx=0;entryDy=0;" parent="WIyWlLk6GJQsqaUBKTNV-1" source="DZtqvsGBUFGNdlKDPb9Z-6" target="DZtqvsGBUFGNdlKDPb9Z-2" edge="1">
          <mxGeometry x="-0.4256" y="-31" relative="1" as="geometry">
            <mxPoint x="260" y="160" as="targetPoint" />
            <mxPoint x="320" y="132" as="sourcePoint" />
            <Array as="points">
              <mxPoint x="260" y="132" />
            </Array>
            <mxPoint as="offset" />
          </mxGeometry>
        </mxCell>
        <mxCell id="DZtqvsGBUFGNdlKDPb9Z-9" value="Dèja client?" style="rhombus;whiteSpace=wrap;html=1;fillColor=#ffffc0;strokeColor=#ff0000;" parent="WIyWlLk6GJQsqaUBKTNV-1" vertex="1">
          <mxGeometry x="220" y="270" width="80" height="60" as="geometry" />
        </mxCell>
        <mxCell id="DZtqvsGBUFGNdlKDPb9Z-10" value="Oui" style="edgeStyle=orthogonalEdgeStyle;html=1;align=left;verticalAlign=bottom;endArrow=open;endSize=8;strokeColor=#ff0000;entryX=0.5;entryY=0;entryDx=0;entryDy=0;exitX=1;exitY=0.5;exitDx=0;exitDy=0;" parent="WIyWlLk6GJQsqaUBKTNV-1" source="DZtqvsGBUFGNdlKDPb9Z-9" target="DZtqvsGBUFGNdlKDPb9Z-18" edge="1">
          <mxGeometry x="-0.5402" relative="1" as="geometry">
            <mxPoint x="350" y="510" as="targetPoint" />
            <mxPoint as="offset" />
          </mxGeometry>
        </mxCell>
        <mxCell id="DZtqvsGBUFGNdlKDPb9Z-11" value="Non" style="edgeStyle=orthogonalEdgeStyle;html=1;align=left;verticalAlign=top;endArrow=open;endSize=8;strokeColor=#ff0000;exitX=0;exitY=0.5;exitDx=0;exitDy=0;entryX=0.5;entryY=0;entryDx=0;entryDy=0;" parent="WIyWlLk6GJQsqaUBKTNV-1" source="DZtqvsGBUFGNdlKDPb9Z-9" target="DZtqvsGBUFGNdlKDPb9Z-12" edge="1">
          <mxGeometry x="-0.1111" y="-20" relative="1" as="geometry">
            <mxPoint x="110" y="450" as="targetPoint" />
            <mxPoint x="210" y="480" as="sourcePoint" />
            <Array as="points">
              <mxPoint x="160" y="300" />
            </Array>
            <mxPoint as="offset" />
          </mxGeometry>
        </mxCell>
        <mxCell id="DZtqvsGBUFGNdlKDPb9Z-12" value="S&#39;enregistrer" style="rounded=1;whiteSpace=wrap;html=1;arcSize=40;fontColor=#000000;fillColor=#ffffc0;strokeColor=#ff0000;" parent="WIyWlLk6GJQsqaUBKTNV-1" vertex="1">
          <mxGeometry x="100" y="330" width="120" height="40" as="geometry" />
        </mxCell>
        <mxCell id="DZtqvsGBUFGNdlKDPb9Z-13" value="" style="edgeStyle=orthogonalEdgeStyle;html=1;verticalAlign=bottom;endArrow=open;endSize=8;strokeColor=#ff0000;entryX=0.5;entryY=0;entryDx=0;entryDy=0;" parent="WIyWlLk6GJQsqaUBKTNV-1" source="DZtqvsGBUFGNdlKDPb9Z-12" target="DZtqvsGBUFGNdlKDPb9Z-16" edge="1">
          <mxGeometry relative="1" as="geometry">
            <mxPoint x="30" y="630" as="targetPoint" />
          </mxGeometry>
        </mxCell>
        <mxCell id="DZtqvsGBUFGNdlKDPb9Z-16" value="S&#39;authentifier" style="rounded=1;whiteSpace=wrap;html=1;arcSize=40;fontColor=#000000;fillColor=#ffffc0;strokeColor=#ff0000;" parent="WIyWlLk6GJQsqaUBKTNV-1" vertex="1">
          <mxGeometry x="100" y="400" width="120" height="40" as="geometry" />
        </mxCell>
        <mxCell id="DZtqvsGBUFGNdlKDPb9Z-17" value="" style="edgeStyle=orthogonalEdgeStyle;html=1;verticalAlign=bottom;endArrow=open;endSize=8;strokeColor=#ff0000;entryX=0;entryY=0.5;entryDx=0;entryDy=0;" parent="WIyWlLk6GJQsqaUBKTNV-1" source="DZtqvsGBUFGNdlKDPb9Z-16" target="DZtqvsGBUFGNdlKDPb9Z-20" edge="1">
          <mxGeometry relative="1" as="geometry">
            <mxPoint x="240" y="620" as="targetPoint" />
          </mxGeometry>
        </mxCell>
        <mxCell id="DZtqvsGBUFGNdlKDPb9Z-18" value="S&#39;authentifier" style="rounded=1;whiteSpace=wrap;html=1;arcSize=40;fontColor=#000000;fillColor=#ffffc0;strokeColor=#ff0000;" parent="WIyWlLk6GJQsqaUBKTNV-1" vertex="1">
          <mxGeometry x="297" y="330" width="120" height="40" as="geometry" />
        </mxCell>
        <mxCell id="DZtqvsGBUFGNdlKDPb9Z-19" value="" style="edgeStyle=orthogonalEdgeStyle;html=1;verticalAlign=bottom;endArrow=open;endSize=8;strokeColor=#ff0000;entryX=0.5;entryY=0;entryDx=0;entryDy=0;" parent="WIyWlLk6GJQsqaUBKTNV-1" source="DZtqvsGBUFGNdlKDPb9Z-18" target="DZtqvsGBUFGNdlKDPb9Z-20" edge="1">
          <mxGeometry relative="1" as="geometry">
            <mxPoint x="354" y="570" as="targetPoint" />
          </mxGeometry>
        </mxCell>
        <mxCell id="DZtqvsGBUFGNdlKDPb9Z-20" value="Enregistrer une commande" style="rounded=1;whiteSpace=wrap;html=1;arcSize=40;fontColor=#000000;fillColor=#ffffc0;strokeColor=#ff0000;" parent="WIyWlLk6GJQsqaUBKTNV-1" vertex="1">
          <mxGeometry x="297" y="400" width="120" height="40" as="geometry" />
        </mxCell>
        <mxCell id="DZtqvsGBUFGNdlKDPb9Z-21" value="" style="edgeStyle=orthogonalEdgeStyle;html=1;verticalAlign=bottom;endArrow=open;endSize=8;strokeColor=#ff0000;entryX=0.5;entryY=0;entryDx=0;entryDy=0;" parent="WIyWlLk6GJQsqaUBKTNV-1" source="DZtqvsGBUFGNdlKDPb9Z-20" target="qeKKM6GIaMTyumXZyBNg-2" edge="1">
          <mxGeometry relative="1" as="geometry">
            <mxPoint x="357" y="490" as="targetPoint" />
          </mxGeometry>
        </mxCell>
        <mxCell id="DZtqvsGBUFGNdlKDPb9Z-23" value="Préparation" style="rounded=1;whiteSpace=wrap;html=1;arcSize=40;fontColor=#000000;fillColor=#ffffc0;strokeColor=#ff0000;" parent="WIyWlLk6GJQsqaUBKTNV-1" vertex="1">
          <mxGeometry x="126" y="540" width="120" height="40" as="geometry" />
        </mxCell>
        <mxCell id="DZtqvsGBUFGNdlKDPb9Z-24" value="" style="edgeStyle=orthogonalEdgeStyle;html=1;verticalAlign=bottom;endArrow=open;endSize=8;strokeColor=#ff0000;entryX=0.5;entryY=0;entryDx=0;entryDy=0;" parent="WIyWlLk6GJQsqaUBKTNV-1" source="DZtqvsGBUFGNdlKDPb9Z-23" target="DZtqvsGBUFGNdlKDPb9Z-27" edge="1">
          <mxGeometry relative="1" as="geometry">
            <mxPoint x="39" y="920" as="targetPoint" />
          </mxGeometry>
        </mxCell>
        <mxCell id="DZtqvsGBUFGNdlKDPb9Z-25" value="S&#39;authentifier" style="rounded=1;whiteSpace=wrap;html=1;arcSize=40;fontColor=#000000;fillColor=#ffffc0;strokeColor=#ff0000;" parent="WIyWlLk6GJQsqaUBKTNV-1" vertex="1">
          <mxGeometry x="470" y="150" width="120" height="40" as="geometry" />
        </mxCell>
        <mxCell id="DZtqvsGBUFGNdlKDPb9Z-26" value="" style="edgeStyle=orthogonalEdgeStyle;html=1;verticalAlign=bottom;endArrow=open;endSize=8;strokeColor=#ff0000;entryX=0.5;entryY=0;entryDx=0;entryDy=0;" parent="WIyWlLk6GJQsqaUBKTNV-1" source="DZtqvsGBUFGNdlKDPb9Z-25" target="DZtqvsGBUFGNdlKDPb9Z-40" edge="1">
          <mxGeometry relative="1" as="geometry">
            <mxPoint x="694" y="420" as="targetPoint" />
          </mxGeometry>
        </mxCell>
        <mxCell id="DZtqvsGBUFGNdlKDPb9Z-27" value="Choix de&lt;br&gt;réception?" style="rhombus;whiteSpace=wrap;html=1;fillColor=#ffffc0;strokeColor=#ff0000;" parent="WIyWlLk6GJQsqaUBKTNV-1" vertex="1">
          <mxGeometry x="123" y="610" width="126" height="80" as="geometry" />
        </mxCell>
        <mxCell id="DZtqvsGBUFGNdlKDPb9Z-28" value="&lt;span style=&quot;font-size: 12px ; text-align: center ; white-space: normal ; background-color: rgb(248 , 249 , 250)&quot;&gt;Livraison&lt;/span&gt;" style="edgeStyle=orthogonalEdgeStyle;html=1;align=left;verticalAlign=bottom;endArrow=open;endSize=8;strokeColor=#ff0000;entryX=0.5;entryY=0;entryDx=0;entryDy=0;exitX=-0.006;exitY=0.502;exitDx=0;exitDy=0;exitPerimeter=0;" parent="WIyWlLk6GJQsqaUBKTNV-1" source="DZtqvsGBUFGNdlKDPb9Z-27" edge="1">
          <mxGeometry x="0.1323" relative="1" as="geometry">
            <mxPoint x="58.00000000000006" y="680" as="targetPoint" />
            <mxPoint x="109" y="650" as="sourcePoint" />
            <Array as="points">
              <mxPoint x="58" y="650" />
            </Array>
            <mxPoint as="offset" />
          </mxGeometry>
        </mxCell>
        <mxCell id="DZtqvsGBUFGNdlKDPb9Z-29" value="&lt;span style=&quot;font-size: 12px ; text-align: center ; white-space: normal ; background-color: rgb(248 , 249 , 250)&quot;&gt;Retrait&amp;nbsp;&lt;/span&gt;&lt;span style=&quot;font-size: 12px ; text-align: center ; white-space: normal ; background-color: rgb(248 , 249 , 250)&quot;&gt;par le client&lt;/span&gt;" style="edgeStyle=orthogonalEdgeStyle;html=1;align=left;verticalAlign=top;endArrow=open;endSize=8;strokeColor=#ff0000;" parent="WIyWlLk6GJQsqaUBKTNV-1" source="DZtqvsGBUFGNdlKDPb9Z-27" target="DZtqvsGBUFGNdlKDPb9Z-32" edge="1">
          <mxGeometry x="-0.75" y="40" relative="1" as="geometry">
            <mxPoint x="405" y="920" as="targetPoint" />
            <mxPoint as="offset" />
          </mxGeometry>
        </mxCell>
        <mxCell id="DZtqvsGBUFGNdlKDPb9Z-30" value="Affectation à&lt;br&gt;un livreur" style="rounded=1;whiteSpace=wrap;html=1;arcSize=40;fontColor=#000000;fillColor=#ffffc0;strokeColor=#ff0000;" parent="WIyWlLk6GJQsqaUBKTNV-1" vertex="1">
          <mxGeometry x="-1" y="680" width="120" height="40" as="geometry" />
        </mxCell>
        <mxCell id="DZtqvsGBUFGNdlKDPb9Z-31" value="" style="edgeStyle=orthogonalEdgeStyle;html=1;verticalAlign=bottom;endArrow=open;endSize=8;strokeColor=#ff0000;entryX=0.5;entryY=0;entryDx=0;entryDy=0;" parent="WIyWlLk6GJQsqaUBKTNV-1" source="DZtqvsGBUFGNdlKDPb9Z-30" target="DZtqvsGBUFGNdlKDPb9Z-34" edge="1">
          <mxGeometry relative="1" as="geometry">
            <mxPoint x="-31" y="1110" as="targetPoint" />
          </mxGeometry>
        </mxCell>
        <mxCell id="DZtqvsGBUFGNdlKDPb9Z-32" value="Retrait au&lt;br&gt;comptoir" style="rounded=1;whiteSpace=wrap;html=1;arcSize=40;fontColor=#000000;fillColor=#ffffc0;strokeColor=#ff0000;" parent="WIyWlLk6GJQsqaUBKTNV-1" vertex="1">
          <mxGeometry x="250" y="710" width="120" height="40" as="geometry" />
        </mxCell>
        <mxCell id="DZtqvsGBUFGNdlKDPb9Z-33" value="" style="edgeStyle=orthogonalEdgeStyle;html=1;verticalAlign=bottom;endArrow=open;endSize=8;strokeColor=#ff0000;exitX=0.5;exitY=1;exitDx=0;exitDy=0;entryX=0;entryY=0;entryDx=0;entryDy=0;" parent="WIyWlLk6GJQsqaUBKTNV-1" source="DZtqvsGBUFGNdlKDPb9Z-32" target="qeKKM6GIaMTyumXZyBNg-16" edge="1">
          <mxGeometry relative="1" as="geometry">
            <mxPoint x="310" y="980" as="targetPoint" />
            <Array as="points">
              <mxPoint x="310" y="890" />
              <mxPoint x="344" y="890" />
              <mxPoint x="344" y="934" />
            </Array>
          </mxGeometry>
        </mxCell>
        <mxCell id="DZtqvsGBUFGNdlKDPb9Z-34" value="Livraison" style="rounded=1;whiteSpace=wrap;html=1;arcSize=40;fontColor=#000000;fillColor=#ffffc0;strokeColor=#ff0000;" parent="WIyWlLk6GJQsqaUBKTNV-1" vertex="1">
          <mxGeometry x="-1" y="750" width="120" height="40" as="geometry" />
        </mxCell>
        <mxCell id="DZtqvsGBUFGNdlKDPb9Z-35" value="" style="edgeStyle=orthogonalEdgeStyle;html=1;verticalAlign=bottom;endArrow=open;endSize=8;strokeColor=#ff0000;entryX=0;entryY=0.5;entryDx=0;entryDy=0;exitX=0.5;exitY=1;exitDx=0;exitDy=0;" parent="WIyWlLk6GJQsqaUBKTNV-1" source="DZtqvsGBUFGNdlKDPb9Z-34" target="qeKKM6GIaMTyumXZyBNg-16" edge="1">
          <mxGeometry relative="1" as="geometry">
            <mxPoint x="169" y="885" as="targetPoint" />
            <Array as="points">
              <mxPoint x="59" y="945" />
            </Array>
          </mxGeometry>
        </mxCell>
        <mxCell id="DZtqvsGBUFGNdlKDPb9Z-38" value="" style="ellipse;html=1;shape=startState;fillColor=#000000;strokeColor=#ff0000;" parent="WIyWlLk6GJQsqaUBKTNV-1" vertex="1">
          <mxGeometry x="379" y="30" width="30" height="30" as="geometry" />
        </mxCell>
        <mxCell id="DZtqvsGBUFGNdlKDPb9Z-39" value="" style="edgeStyle=orthogonalEdgeStyle;html=1;verticalAlign=bottom;endArrow=open;endSize=8;strokeColor=#ff0000;entryX=0.5;entryY=0;entryDx=0;entryDy=0;" parent="WIyWlLk6GJQsqaUBKTNV-1" source="DZtqvsGBUFGNdlKDPb9Z-38" target="DZtqvsGBUFGNdlKDPb9Z-6" edge="1">
          <mxGeometry relative="1" as="geometry">
            <mxPoint x="394" y="170" as="targetPoint" />
          </mxGeometry>
        </mxCell>
        <mxCell id="DZtqvsGBUFGNdlKDPb9Z-40" value="Sélectionner un&lt;br&gt;client" style="rounded=1;whiteSpace=wrap;html=1;arcSize=40;fontColor=#000000;fillColor=#ffffc0;strokeColor=#ff0000;" parent="WIyWlLk6GJQsqaUBKTNV-1" vertex="1">
          <mxGeometry x="470" y="240" width="120" height="40" as="geometry" />
        </mxCell>
        <mxCell id="DZtqvsGBUFGNdlKDPb9Z-41" value="" style="edgeStyle=orthogonalEdgeStyle;html=1;verticalAlign=bottom;endArrow=open;endSize=8;strokeColor=#ff0000;exitX=0.5;exitY=1;exitDx=0;exitDy=0;entryX=0.5;entryY=0;entryDx=0;entryDy=0;" parent="WIyWlLk6GJQsqaUBKTNV-1" source="DZtqvsGBUFGNdlKDPb9Z-40" target="DZtqvsGBUFGNdlKDPb9Z-44" edge="1">
          <mxGeometry relative="1" as="geometry">
            <mxPoint x="660" y="370" as="targetPoint" />
            <Array as="points">
              <mxPoint x="530" y="330" />
              <mxPoint x="530" y="330" />
            </Array>
          </mxGeometry>
        </mxCell>
        <mxCell id="DZtqvsGBUFGNdlKDPb9Z-44" value="Consulter le catalogue" style="rounded=1;whiteSpace=wrap;html=1;arcSize=40;fontColor=#000000;fillColor=#ffffc0;strokeColor=#ff0000;" parent="WIyWlLk6GJQsqaUBKTNV-1" vertex="1">
          <mxGeometry x="470" y="320" width="120" height="40" as="geometry" />
        </mxCell>
        <mxCell id="DZtqvsGBUFGNdlKDPb9Z-45" value="" style="edgeStyle=orthogonalEdgeStyle;html=1;verticalAlign=bottom;endArrow=open;endSize=8;strokeColor=#ff0000;entryX=0.5;entryY=0;entryDx=0;entryDy=0;" parent="WIyWlLk6GJQsqaUBKTNV-1" source="DZtqvsGBUFGNdlKDPb9Z-44" target="DZtqvsGBUFGNdlKDPb9Z-46" edge="1">
          <mxGeometry relative="1" as="geometry">
            <mxPoint x="430" y="330" as="targetPoint" />
          </mxGeometry>
        </mxCell>
        <mxCell id="DZtqvsGBUFGNdlKDPb9Z-46" value="Constituer le panier" style="rounded=1;whiteSpace=wrap;html=1;arcSize=40;fontColor=#000000;fillColor=#ffffc0;strokeColor=#ff0000;" parent="WIyWlLk6GJQsqaUBKTNV-1" vertex="1">
          <mxGeometry x="470" y="400" width="120" height="40" as="geometry" />
        </mxCell>
        <mxCell id="DZtqvsGBUFGNdlKDPb9Z-47" value="" style="edgeStyle=orthogonalEdgeStyle;html=1;verticalAlign=bottom;endArrow=open;endSize=8;strokeColor=#ff0000;exitX=0;exitY=0.5;exitDx=0;exitDy=0;entryX=1;entryY=0.5;entryDx=0;entryDy=0;" parent="WIyWlLk6GJQsqaUBKTNV-1" source="DZtqvsGBUFGNdlKDPb9Z-46" target="DZtqvsGBUFGNdlKDPb9Z-20" edge="1">
          <mxGeometry relative="1" as="geometry">
            <mxPoint x="430" y="560" as="targetPoint" />
            <mxPoint x="710" y="580" as="sourcePoint" />
            <Array as="points">
              <mxPoint x="450" y="420" />
              <mxPoint x="450" y="420" />
            </Array>
          </mxGeometry>
        </mxCell>
        <mxCell id="qeKKM6GIaMTyumXZyBNg-2" value="Choix du paiement?" style="rhombus;whiteSpace=wrap;html=1;fillColor=#ffffc0;strokeColor=#ff0000;" vertex="1" parent="WIyWlLk6GJQsqaUBKTNV-1">
          <mxGeometry x="303.5" y="480" width="107" height="60" as="geometry" />
        </mxCell>
        <mxCell id="qeKKM6GIaMTyumXZyBNg-3" value="À réception (espèces)" style="edgeStyle=orthogonalEdgeStyle;html=1;align=left;verticalAlign=bottom;endArrow=open;endSize=8;strokeColor=#ff0000;entryX=0.5;entryY=0;entryDx=0;entryDy=0;" edge="1" source="qeKKM6GIaMTyumXZyBNg-2" parent="WIyWlLk6GJQsqaUBKTNV-1" target="qeKKM6GIaMTyumXZyBNg-5">
          <mxGeometry x="-0.5238" y="10" relative="1" as="geometry">
            <mxPoint x="520" y="590" as="targetPoint" />
            <Array as="points">
              <mxPoint x="577" y="510" />
            </Array>
            <mxPoint as="offset" />
          </mxGeometry>
        </mxCell>
        <mxCell id="qeKKM6GIaMTyumXZyBNg-4" value="En ligne (CB)" style="edgeStyle=orthogonalEdgeStyle;html=1;align=left;verticalAlign=top;endArrow=open;endSize=8;strokeColor=#ff0000;entryX=0.5;entryY=0;entryDx=0;entryDy=0;" edge="1" source="qeKKM6GIaMTyumXZyBNg-2" parent="WIyWlLk6GJQsqaUBKTNV-1" target="DZtqvsGBUFGNdlKDPb9Z-23">
          <mxGeometry x="-0.0909" y="-30" relative="1" as="geometry">
            <mxPoint x="180" y="590" as="targetPoint" />
            <mxPoint as="offset" />
          </mxGeometry>
        </mxCell>
        <mxCell id="qeKKM6GIaMTyumXZyBNg-5" value="Préparation" style="rounded=1;whiteSpace=wrap;html=1;arcSize=40;fontColor=#000000;fillColor=#ffffc0;strokeColor=#ff0000;" vertex="1" parent="WIyWlLk6GJQsqaUBKTNV-1">
          <mxGeometry x="517" y="540" width="120" height="40" as="geometry" />
        </mxCell>
        <mxCell id="qeKKM6GIaMTyumXZyBNg-6" value="" style="edgeStyle=orthogonalEdgeStyle;html=1;verticalAlign=bottom;endArrow=open;endSize=8;strokeColor=#ff0000;entryX=0.5;entryY=0;entryDx=0;entryDy=0;" edge="1" parent="WIyWlLk6GJQsqaUBKTNV-1" source="qeKKM6GIaMTyumXZyBNg-5" target="qeKKM6GIaMTyumXZyBNg-7">
          <mxGeometry relative="1" as="geometry">
            <mxPoint x="430" y="920" as="targetPoint" />
          </mxGeometry>
        </mxCell>
        <mxCell id="qeKKM6GIaMTyumXZyBNg-7" value="Choix de&lt;br&gt;réception?" style="rhombus;whiteSpace=wrap;html=1;fillColor=#ffffc0;strokeColor=#ff0000;" vertex="1" parent="WIyWlLk6GJQsqaUBKTNV-1">
          <mxGeometry x="514" y="610" width="126" height="80" as="geometry" />
        </mxCell>
        <mxCell id="qeKKM6GIaMTyumXZyBNg-8" value="&lt;span style=&quot;font-size: 12px ; text-align: center ; white-space: normal ; background-color: rgb(248 , 249 , 250)&quot;&gt;Livraison&lt;/span&gt;" style="edgeStyle=orthogonalEdgeStyle;html=1;align=left;verticalAlign=bottom;endArrow=open;endSize=8;strokeColor=#ff0000;entryX=0.5;entryY=0;entryDx=0;entryDy=0;exitX=-0.006;exitY=0.502;exitDx=0;exitDy=0;exitPerimeter=0;" edge="1" parent="WIyWlLk6GJQsqaUBKTNV-1" source="qeKKM6GIaMTyumXZyBNg-7">
          <mxGeometry x="0.1323" relative="1" as="geometry">
            <mxPoint x="449" y="680" as="targetPoint" />
            <mxPoint x="500" y="650" as="sourcePoint" />
            <Array as="points">
              <mxPoint x="449" y="650" />
            </Array>
            <mxPoint as="offset" />
          </mxGeometry>
        </mxCell>
        <mxCell id="qeKKM6GIaMTyumXZyBNg-9" value="&lt;span style=&quot;font-size: 12px ; text-align: center ; white-space: normal ; background-color: rgb(248 , 249 , 250)&quot;&gt;Retrait&amp;nbsp;&lt;/span&gt;&lt;span style=&quot;font-size: 12px ; text-align: center ; white-space: normal ; background-color: rgb(248 , 249 , 250)&quot;&gt;par le client&lt;/span&gt;" style="edgeStyle=orthogonalEdgeStyle;html=1;align=left;verticalAlign=top;endArrow=open;endSize=8;strokeColor=#ff0000;" edge="1" parent="WIyWlLk6GJQsqaUBKTNV-1" source="qeKKM6GIaMTyumXZyBNg-7" target="qeKKM6GIaMTyumXZyBNg-12">
          <mxGeometry x="-0.75" y="40" relative="1" as="geometry">
            <mxPoint x="796" y="920" as="targetPoint" />
            <mxPoint as="offset" />
          </mxGeometry>
        </mxCell>
        <mxCell id="qeKKM6GIaMTyumXZyBNg-10" value="Affectation à&lt;br&gt;un livreur" style="rounded=1;whiteSpace=wrap;html=1;arcSize=40;fontColor=#000000;fillColor=#ffffc0;strokeColor=#ff0000;" vertex="1" parent="WIyWlLk6GJQsqaUBKTNV-1">
          <mxGeometry x="390" y="680" width="120" height="40" as="geometry" />
        </mxCell>
        <mxCell id="qeKKM6GIaMTyumXZyBNg-11" value="" style="edgeStyle=orthogonalEdgeStyle;html=1;verticalAlign=bottom;endArrow=open;endSize=8;strokeColor=#ff0000;entryX=0.5;entryY=0;entryDx=0;entryDy=0;" edge="1" parent="WIyWlLk6GJQsqaUBKTNV-1" source="qeKKM6GIaMTyumXZyBNg-10" target="qeKKM6GIaMTyumXZyBNg-14">
          <mxGeometry relative="1" as="geometry">
            <mxPoint x="360" y="1110" as="targetPoint" />
          </mxGeometry>
        </mxCell>
        <mxCell id="qeKKM6GIaMTyumXZyBNg-12" value="Paiement" style="rounded=1;whiteSpace=wrap;html=1;arcSize=40;fontColor=#000000;fillColor=#ffffc0;strokeColor=#ff0000;" vertex="1" parent="WIyWlLk6GJQsqaUBKTNV-1">
          <mxGeometry x="650" y="700" width="120" height="40" as="geometry" />
        </mxCell>
        <mxCell id="qeKKM6GIaMTyumXZyBNg-13" value="" style="edgeStyle=orthogonalEdgeStyle;html=1;verticalAlign=bottom;endArrow=open;endSize=8;strokeColor=#ff0000;exitX=0.5;exitY=1;exitDx=0;exitDy=0;entryX=0.5;entryY=0;entryDx=0;entryDy=0;" edge="1" parent="WIyWlLk6GJQsqaUBKTNV-1" source="qeKKM6GIaMTyumXZyBNg-12" target="qeKKM6GIaMTyumXZyBNg-20">
          <mxGeometry relative="1" as="geometry">
            <mxPoint x="680" y="945" as="targetPoint" />
            <Array as="points">
              <mxPoint x="710" y="790" />
              <mxPoint x="710" y="790" />
            </Array>
          </mxGeometry>
        </mxCell>
        <mxCell id="qeKKM6GIaMTyumXZyBNg-14" value="Livraison" style="rounded=1;whiteSpace=wrap;html=1;arcSize=40;fontColor=#000000;fillColor=#ffffc0;strokeColor=#ff0000;" vertex="1" parent="WIyWlLk6GJQsqaUBKTNV-1">
          <mxGeometry x="390" y="750" width="120" height="40" as="geometry" />
        </mxCell>
        <mxCell id="qeKKM6GIaMTyumXZyBNg-15" value="" style="edgeStyle=orthogonalEdgeStyle;html=1;verticalAlign=bottom;endArrow=open;endSize=8;strokeColor=#ff0000;exitX=0.5;exitY=1;exitDx=0;exitDy=0;entryX=0.5;entryY=0;entryDx=0;entryDy=0;" edge="1" parent="WIyWlLk6GJQsqaUBKTNV-1" source="qeKKM6GIaMTyumXZyBNg-14" target="qeKKM6GIaMTyumXZyBNg-17">
          <mxGeometry relative="1" as="geometry">
            <mxPoint x="470" y="810" as="targetPoint" />
            <Array as="points">
              <mxPoint x="450" y="820" />
              <mxPoint x="450" y="820" />
            </Array>
          </mxGeometry>
        </mxCell>
        <mxCell id="qeKKM6GIaMTyumXZyBNg-16" value="" style="ellipse;html=1;shape=endState;fillColor=#000000;strokeColor=#ff0000;" vertex="1" parent="WIyWlLk6GJQsqaUBKTNV-1">
          <mxGeometry x="340" y="930" width="30" height="30" as="geometry" />
        </mxCell>
        <mxCell id="qeKKM6GIaMTyumXZyBNg-17" value="Paiement" style="rounded=1;whiteSpace=wrap;html=1;arcSize=40;fontColor=#000000;fillColor=#ffffc0;strokeColor=#ff0000;" vertex="1" parent="WIyWlLk6GJQsqaUBKTNV-1">
          <mxGeometry x="390" y="830" width="120" height="40" as="geometry" />
        </mxCell>
        <mxCell id="qeKKM6GIaMTyumXZyBNg-18" value="" style="edgeStyle=orthogonalEdgeStyle;html=1;verticalAlign=bottom;endArrow=open;endSize=8;strokeColor=#ff0000;entryX=1;entryY=0;entryDx=0;entryDy=0;" edge="1" source="qeKKM6GIaMTyumXZyBNg-17" parent="WIyWlLk6GJQsqaUBKTNV-1" target="qeKKM6GIaMTyumXZyBNg-16">
          <mxGeometry relative="1" as="geometry">
            <mxPoint x="560" y="900" as="targetPoint" />
            <Array as="points">
              <mxPoint x="450" y="890" />
              <mxPoint x="366" y="890" />
            </Array>
          </mxGeometry>
        </mxCell>
        <mxCell id="qeKKM6GIaMTyumXZyBNg-20" value="Retrait au&lt;br&gt;comptoir" style="rounded=1;whiteSpace=wrap;html=1;arcSize=40;fontColor=#000000;fillColor=#ffffc0;strokeColor=#ff0000;" vertex="1" parent="WIyWlLk6GJQsqaUBKTNV-1">
          <mxGeometry x="650" y="820" width="120" height="40" as="geometry" />
        </mxCell>
        <mxCell id="qeKKM6GIaMTyumXZyBNg-21" value="" style="edgeStyle=orthogonalEdgeStyle;html=1;verticalAlign=bottom;endArrow=open;endSize=8;strokeColor=#ff0000;entryX=1;entryY=0.5;entryDx=0;entryDy=0;" edge="1" parent="WIyWlLk6GJQsqaUBKTNV-1" source="qeKKM6GIaMTyumXZyBNg-20" target="qeKKM6GIaMTyumXZyBNg-16">
          <mxGeometry relative="1" as="geometry">
            <mxPoint x="619.9966017177982" y="1064.3933982822018" as="targetPoint" />
            <Array as="points">
              <mxPoint x="710" y="945" />
            </Array>
          </mxGeometry>
        </mxCell>
      </root>
    </mxGraphModel>
  </diagram>
</mxfile>
